<svg width="142" height="31" viewBox="0 0 142 31" fill="none" xmlns="http://www.w3.org/2000/svg">
<g clip-path="url(#clip0_65_449)">
<path d="M43.4942 23.169H39.9528V8.35382H43.4942V14.7016H43.5375C43.9683 14.085 45.3935 12.1954 46.0208 11.4339L48.5042 8.35666H52.7163L46.7783 15.2557L53.3233 23.1747H48.7441L45.9572 19.586C45.3964 18.8444 44.295 17.3157 43.5375 16.1905H43.4942V23.1747V23.169Z" fill="black"/>
<path d="M70.7499 15.7188C70.7499 20.5578 67.7693 23.4446 63.1467 23.4446C58.5241 23.4446 55.6968 20.5578 55.6968 15.7387C55.6968 10.9196 58.6108 8.09808 63.3635 8.09808C67.8127 8.09808 70.7499 10.985 70.7499 15.7188ZM59.4319 15.8239C59.4319 18.9012 60.9641 20.8334 63.2537 20.8334C65.5433 20.8334 67.0321 18.8813 67.0321 15.8239C67.0321 12.5961 65.5202 10.7094 63.167 10.7094C60.8137 10.7094 59.4319 12.6614 59.4319 15.8239Z" fill="black"/>
<path d="M87.6301 17.2901C87.6301 21.6205 85.1901 23.4248 81.2816 23.4248C77.0059 23.4248 74.9967 21.4301 74.9967 17.2901V8.35382H78.5612V17.3754C78.5612 19.711 79.2522 20.7936 81.3047 20.7936C83.2041 20.7936 84.1783 19.711 84.1783 17.3754V8.35382H87.633V17.2901H87.6301Z" fill="black"/>
<path d="M103.169 11.093L99.0869 11.0304V23.1719H95.479V11.0304L91.4838 11.093V8.35382H103.169V11.093Z" fill="black"/>
<path d="M116.655 8.35382V11.0077H110.521V14.318H116.222V16.9491H110.521V20.4952H116.806V23.169H107.023V8.35382H116.655Z" fill="black"/>
<path d="M125.559 23.169H121.995V8.35382H125.559V23.1719V23.169Z" fill="black"/>
<path d="M134.637 20.4754H142.003V23.1719H130.751V20.3049C134.486 15.2727 137.424 11.5817 137.901 11.0276H130.988V8.35382H141.853V11.1555C137.467 17.0145 135.244 19.7963 134.64 20.4754H134.637Z" fill="black"/>
<path d="M124.122 27.9284C123.911 27.846 123.703 27.8034 123.46 27.8034C122.793 27.8034 122.394 28.2467 122.394 28.9116C122.394 29.5764 122.769 30.0027 123.484 30.0027C123.715 30.0027 123.926 29.9742 124.166 29.8691L124.212 30.7471C123.906 30.8437 123.657 30.8807 123.319 30.8807C122.021 30.8807 121.179 30.1277 121.179 28.9116C121.179 27.6954 122.096 26.9566 123.29 26.9566C123.651 26.9566 123.935 26.9851 124.206 27.076L124.122 27.9313V27.9284Z" fill="black"/>
<path d="M126.64 30.8238H125.455V25.2461H126.64V30.8238Z" fill="black"/>
<path d="M132.029 28.9258C132.029 30.1277 131.165 30.9176 129.881 30.9176C128.598 30.9176 127.733 30.122 127.733 28.9258C127.733 27.7295 128.58 26.9112 129.904 26.9112C131.228 26.9112 132.029 27.7011 132.029 28.9258ZM128.965 28.9115C128.965 29.6191 129.332 30.0851 129.881 30.0851C130.43 30.0851 130.803 29.6276 130.803 28.9115C130.803 28.1955 130.442 27.7295 129.881 27.7295C129.32 27.7295 128.965 28.1955 128.965 28.9115Z" fill="black"/>
<path d="M135.834 30.1732C135.562 30.6164 135.091 30.9176 134.437 30.9176C133.605 30.9176 133.055 30.3351 133.055 29.4571V27.0078H134.226V29.0451C134.226 29.6276 134.391 29.9686 134.894 29.9686C135.397 29.9686 135.75 29.4969 135.75 28.8689V27.0106H136.935V29.6958C136.935 30.0936 136.935 30.5084 136.973 30.8238H135.877C135.863 30.6704 135.848 30.426 135.848 30.1732H135.834Z" fill="black"/>
<path d="M140.881 30.1504C140.604 30.659 140.176 30.9091 139.569 30.9091C138.525 30.9091 137.857 30.1192 137.857 28.8945C137.857 27.6698 138.557 26.9083 139.577 26.9083C140.164 26.9083 140.555 27.1669 140.794 27.5789H140.809C140.794 27.255 140.786 26.8401 140.786 26.4708V25.2376H141.965V29.6787C141.965 30.0765 141.974 30.4971 142.003 30.8153H140.913C140.904 30.6448 140.899 30.4033 140.899 30.1447H140.884L140.881 30.1504ZM139.063 28.903C139.063 29.5679 139.401 30.0396 139.927 30.0396C140.453 30.0396 140.821 29.5679 140.821 28.9172C140.821 28.2665 140.459 27.7892 139.904 27.7892C139.392 27.7892 139.063 28.2467 139.063 28.903Z" fill="black"/>
<path d="M15.7701 31C11.3816 31 7.15507 29.1786 4.17451 26.0019C1.48305 23.1321 0 19.4013 0 15.5C0 11.5987 1.48305 7.86792 4.17451 4.99808C7.15507 1.82136 11.3816 0 15.7701 0C22.133 0 27.8426 3.72511 30.3115 9.49322C31.1267 11.397 31.5401 13.4201 31.5401 15.5C31.5401 17.5799 31.1267 19.603 30.3115 21.5068C27.8426 27.272 22.133 31 15.7701 31ZM5.88595 26.0815C8.56296 28.491 12.1477 29.8663 15.7701 29.8663C21.3322 29.8663 26.4608 26.7151 28.9007 21.8222L22.5696 21.5778C21.8035 21.5324 21.205 20.9101 21.205 20.1628V10.8372C21.205 10.0899 21.7977 9.47049 22.5551 9.42502L28.9007 9.18066C26.4608 4.28488 21.3322 1.13373 15.7701 1.13373C12.1477 1.13373 8.56296 2.50898 5.88595 4.91852L18.5136 5.9528C19.2623 5.99826 19.8521 6.61769 19.8521 7.36499V9.24033C19.8521 9.98763 19.2594 10.6071 18.502 10.6525L12.8242 11.002C12.6739 11.0105 12.5553 11.1356 12.5553 11.2833V19.711C12.5553 19.8588 12.6739 19.9838 12.8242 19.9923L18.502 20.3418C19.2594 20.3873 19.8521 21.0095 19.8521 21.7568V23.6322C19.8521 24.3795 19.2594 24.9989 18.502 25.0444L5.88595 26.0786V26.0815ZM4.83365 5.97269C2.46019 8.60101 1.15348 11.9823 1.15348 15.5C1.15348 19.0177 2.46019 22.399 4.83365 25.0302L18.4182 23.9163C18.5801 23.905 18.6986 23.7856 18.6986 23.6322V21.7568C18.6986 21.6091 18.5801 21.4841 18.4297 21.4755L12.7519 21.126C11.9945 21.0806 11.4019 20.4583 11.4019 19.7138V11.2862C11.4019 10.5417 11.9945 9.91943 12.7519 9.87113L18.4297 9.52163C18.5801 9.51311 18.6986 9.38808 18.6986 9.24033V7.36499C18.6986 7.21723 18.5801 7.09221 18.4297 7.08369L4.83365 5.96984V5.97269ZM22.6129 10.5588C22.4742 10.5673 22.3556 10.6951 22.3556 10.8401V20.1656C22.3556 20.3134 22.4742 20.4384 22.6245 20.4469L29.3951 20.7083C30.0513 19.0518 30.3838 17.2986 30.3838 15.5028C30.3838 13.7071 30.0513 11.9539 29.3951 10.2973L22.61 10.5588H22.6129Z" fill="black"/>
</g>
<defs>
<clipPath id="clip0_65_449">
<rect width="142" height="31" fill="white"/>
</clipPath>
</defs>
</svg>
